<svg xmlns="http://www.w3.org/2000/svg" enable-background="new 0 0 100 100" viewBox="0 0 100 100" id="medium"><path d="M91.457,26.502c-4.343,0-5.554,11.619-5.891,18.593c-0.878-8.464-3.988-15.669-8.43-19.07
		c-1.53-1.144-3.262,1.142-1.767,2.308c4.517,3.459,7.551,12.167,7.551,21.667c0,12.549-5.279,23.15-11.527,23.15
		c-6.248,0-11.526-10.602-11.526-23.15c0-12.549,5.279-23.15,11.526-23.15c0.802,0,1.453-0.65,1.453-1.453s-0.651-1.453-1.453-1.453
		c-7.402,0-13.334,9.576-14.294,22.389C55.312,32.847,43.816,22.41,29.937,22.41c-5.495,0-10.796,1.63-15.331,4.714
		c-1.547,1.107,0.022,3.449,1.635,2.403C32.266,18.445,54.61,30.489,54.443,50c0,13.611-10.993,24.684-24.506,24.684
		C8.079,74.724-2.833,47.539,12.84,32.315c1.352-1.356-0.664-3.392-2.036-2.075c-5.339,5.237-8.279,12.255-8.279,19.759
		C3.602,84.386,51.616,87.402,57.1,53.667c2.245,28.72,25.235,30.232,28.471,1.321c0.342,6.983,1.56,18.509,5.886,18.509
		C99.549,73.785,99.547,26.235,91.457,26.502z M91.456,70.478c-4.078-5.053-4.043-36.012,0.001-40.956
		C95.535,34.571,95.497,65.535,91.456,70.478z"></path></svg>